<?xml version="1.0" standalone="no"?>
<!DOCTYPE svg PUBLIC "-//W3C//DTD SVG 20010904//EN"
 "http://www.w3.org/TR/2001/REC-SVG-20010904/DTD/svg10.dtd">
<svg version="1.0" xmlns="http://www.w3.org/2000/svg"
 width="1024.000000pt" height="1024.000000pt" viewBox="0 0 1024.000000 1024.000000"
 preserveAspectRatio="xMidYMid meet">
<metadata>
Created by potrace 1.16, written by Peter Selinger 2001-2019
</metadata>
<g transform="translate(0.000000,1024.000000) scale(0.100000,-0.100000)"
fill="#000000" stroke="none">
<path d="M4980 9553 c-66 -11 -156 -49 -209 -88 -45 -33 -65 -57 -87 -102
l-29 -59 -140 -23 c-953 -156 -1800 -675 -2079 -1273 -90 -192 -142 -394 -190
-735 -56 -392 -82 -787 -97 -1423 -6 -261 -14 -478 -17 -481 -4 -3 -29 -14
-57 -24 -131 -47 -302 -183 -385 -305 -56 -82 -107 -190 -132 -277 -31 -105
-33 -350 -4 -457 102 -380 398 -637 764 -662 l93 -7 -8 -71 c-11 -105 -8 -371
6 -446 23 -124 61 -231 92 -263 25 -24 35 -28 61 -23 35 7 74 39 84 68 11 34
19 18 37 -75 25 -127 107 -370 169 -495 90 -185 162 -233 233 -157 l33 34 17
-42 c26 -67 130 -250 207 -366 93 -139 198 -268 295 -362 165 -159 240 -196
298 -147 24 21 29 34 33 86 2 34 8 62 13 62 5 0 9 -4 9 -9 0 -33 220 -278 327
-362 153 -123 228 -146 284 -89 l30 30 103 -103 c56 -56 141 -129 189 -161 73
-50 95 -60 140 -64 40 -3 63 1 93 16 65 33 156 105 262 207 76 72 102 93 109
82 23 -40 98 -50 154 -22 128 66 372 296 468 442 l31 46 0 -54 c0 -92 52 -145
122 -124 61 19 226 166 344 307 105 126 257 359 334 513 l67 133 16 -33 c19
-40 70 -61 110 -46 90 35 244 403 297 713 l12 68 22 -32 c34 -50 69 -71 105
-63 52 11 83 80 122 269 21 104 28 362 14 479 l-7 53 114 12 c129 13 192 32
306 92 219 114 384 332 449 596 25 102 22 294 -5 407 -66 270 -239 474 -504
596 l-85 39 -6 399 c-13 832 -75 1508 -173 1895 -122 485 -348 774 -859 1102
-373 239 -839 416 -1298 494 l-169 29 -29 54 c-17 30 -44 68 -61 86 -40 41
-129 88 -203 108 -55 14 -175 18 -235 8z m380 -424 c550 -51 1215 -290 1565
-564 184 -143 300 -305 373 -520 65 -191 128 -617 152 -1029 18 -316 10 -889
-13 -912 -3 -3 -30 11 -62 31 -47 31 -56 40 -51 58 24 83 28 149 27 442 0 176
-3 339 -7 361 -7 51 -38 73 -74 54 l-23 -12 7 -272 c7 -301 -2 -499 -25 -521
-12 -11 -29 -6 -119 37 -347 168 -750 297 -1200 387 -238 48 -394 62 -727 68
-539 10 -836 -27 -1365 -167 -288 -77 -594 -187 -789 -286 -62 -31 -95 -42
-102 -35 -21 21 -27 128 -26 450 1 312 0 335 -17 348 -25 18 -38 16 -60 -8
-18 -20 -19 -43 -22 -378 -3 -333 -2 -360 17 -421 11 -35 19 -65 18 -65 -1 -1
-30 -17 -64 -37 -54 -32 -62 -34 -69 -20 -4 10 -9 181 -12 382 -3 280 0 418
12 595 39 527 109 910 202 1098 160 324 505 568 1074 760 494 167 909 220
1380 176z m-2690 -1428 c0 -5 -6 -14 -13 -20 -8 -6 -12 -23 -9 -41 6 -43 -5
-77 -27 -83 -19 -5 -19 -4 1 34 11 21 18 44 16 51 -6 16 -57 -53 -72 -95 -13
-38 -96 -140 -96 -117 1 8 7 42 15 75 13 55 20 66 90 133 72 68 95 83 95 63z
m-44 -253 c-26 -126 -26 -126 -71 -153 -24 -13 -60 -44 -80 -67 l-37 -43 6 61
c6 56 11 65 59 115 42 44 113 105 125 108 1 1 0 -9 -2 -21z m-58 -545 c-7 -14
-35 -42 -63 -61 -27 -18 -52 -38 -54 -43 -5 -15 -51 -63 -55 -58 -2 2 0 38 3
79 l6 75 85 64 85 64 3 -46 c2 -26 -3 -59 -10 -74z m2744 -313 c333 -19 670
-76 966 -166 45 -13 82 -28 82 -33 0 -5 -33 -2 -72 6 -225 44 -314 60 -468 82
-41 6 -111 18 -155 26 -374 67 -876 53 -1410 -40 -329 -57 -489 -86 -510 -91
-15 -4 -14 -1 5 10 49 27 337 105 504 135 394 72 685 91 1058 71z m-32 -620
c509 -40 945 -205 1629 -617 200 -121 351 -196 436 -218 198 -50 398 37 451
199 17 50 22 239 9 310 -4 23 -3 27 4 15 6 -9 18 -65 27 -125 25 -158 4 -263
-71 -352 -98 -117 -296 -157 -480 -98 -103 33 -196 81 -490 256 -422 250 -774
410 -1067 484 -281 72 -569 99 -831 78 -466 -37 -891 -180 -1362 -458 -407
-240 -555 -318 -670 -354 -108 -34 -235 -38 -326 -10 -63 19 -81 30 -134 83
-81 82 -100 134 -99 272 1 92 26 270 39 283 3 3 3 -62 -1 -144 -6 -137 -5
-157 14 -221 25 -80 88 -160 151 -193 87 -44 220 -44 353 0 79 27 234 108 481
253 274 162 453 257 597 318 463 194 904 273 1340 239z m45 -260 c183 -20 527
-110 679 -178 l58 -26 -103 -26 c-124 -32 -163 -48 -206 -84 -63 -53 -69 -153
-12 -200 38 -32 57 -32 119 -1 28 14 92 40 143 57 85 30 102 32 222 32 207 0
302 -36 666 -255 l216 -129 7 -68 c8 -77 -7 -223 -29 -299 -23 -77 -68 -171
-109 -228 -41 -57 -46 -100 -17 -136 16 -20 28 -24 68 -23 l49 2 -8 -67 c-24
-188 -89 -348 -182 -448 -162 -175 -313 -152 -571 86 -140 130 -231 196 -338
246 -157 74 -244 94 -399 95 -77 0 -78 0 -83 28 -28 131 -75 210 -165 276 -86
63 -144 81 -265 81 -92 0 -106 -3 -167 -32 -124 -58 -209 -165 -239 -297 l-12
-53 -116 -6 c-131 -6 -243 -34 -365 -92 -96 -45 -166 -98 -306 -229 -154 -145
-167 -153 -328 -217 -34 -13 -55 -11 -117 12 -65 24 -166 113 -214 187 -53 83
-110 268 -123 397 -3 29 -2 30 37 27 29 -2 48 2 67 17 51 40 45 79 -27 180
-88 124 -135 280 -135 452 l0 108 48 27 c26 15 119 70 207 122 207 124 293
167 385 196 221 70 409 57 602 -40 37 -19 77 -34 89 -34 32 0 77 31 90 62 18
44 6 115 -26 148 -35 37 -141 84 -238 106 -42 10 -74 21 -70 25 17 17 285 113
388 139 95 24 241 51 340 63 68 9 406 6 490 -3z m-3100 -590 c22 -43 24 -55
15 -92 -5 -24 -10 -62 -10 -85 0 -34 -4 -43 -17 -43 -34 0 -142 -59 -182 -99
-22 -22 -54 -67 -70 -99 -30 -60 -56 -170 -49 -213 3 -21 7 -17 33 29 34 59
81 87 209 122 38 11 70 21 72 23 11 10 -15 62 -32 65 -18 3 -115 -53 -123 -71
-6 -14 -55 -57 -66 -57 -5 1 17 27 50 58 41 39 80 65 119 80 33 12 60 21 62
20 10 -11 3 -143 -11 -188 -21 -71 -16 -199 10 -253 10 -21 31 -45 47 -53 27
-14 31 -14 49 2 10 9 19 25 19 34 0 37 15 27 53 -32 21 -33 57 -83 79 -109
l40 -48 -30 -88 c-16 -48 -33 -107 -37 -130 -7 -42 -7 -42 -58 -48 -121 -14
-286 40 -402 132 -116 92 -216 251 -251 400 -22 90 -21 240 1 323 38 146 145
298 267 382 52 35 158 86 180 88 4 0 19 -22 33 -50z m5913 -39 c128 -87 232
-236 266 -381 23 -94 20 -249 -4 -345 -55 -216 -204 -389 -405 -470 -58 -24
-89 -30 -176 -33 -105 -4 -107 -4 -114 19 -3 13 -22 74 -42 136 l-36 112 49
53 c27 30 63 81 81 113 l31 59 13 -42 c8 -27 18 -42 28 -42 40 0 63 15 84 54
30 57 32 240 3 299 -10 21 -16 40 -13 43 7 7 181 -42 220 -63 l30 -15 -22 30
c-11 17 -21 34 -21 39 0 11 49 -49 50 -61 0 -6 9 -19 20 -31 11 -11 26 -39 34
-60 l15 -40 1 35 c10 200 -76 332 -259 397 -30 10 -51 24 -51 33 -1 8 -5 49
-10 90 -8 70 -7 77 17 117 l24 42 64 -24 c36 -13 91 -42 123 -64z m-5688 -157
c26 -16 28 -21 33 -113 7 -111 20 -170 71 -335 20 -66 35 -126 34 -134 -4 -20
-70 79 -103 153 -14 33 -35 96 -46 140 -20 82 -38 305 -25 305 5 0 20 -7 36
-16z m244 -94 c32 0 44 -17 62 -86 17 -68 61 -169 79 -184 9 -8 11 -4 7 15 -2
14 0 25 6 25 5 0 12 -15 15 -32 3 -18 9 -42 13 -53 12 -33 -73 53 -116 117
-21 32 -48 86 -59 121 l-22 64 -75 23 c-41 13 -77 27 -80 31 -2 4 30 -4 71
-17 42 -13 86 -24 99 -24z m2498 -583 c101 -59 146 -191 99 -292 -38 -82 -98
-124 -192 -132 -152 -14 -263 80 -262 222 1 102 56 184 153 224 44 19 153 7
202 -22z m-2409 -172 c1 -22 -11 -94 -26 -159 -29 -120 -48 -326 -31 -326 5 0
29 32 53 70 47 73 106 138 117 127 4 -4 2 -12 -4 -19 -15 -19 -42 -142 -42
-196 0 -43 -5 -53 -63 -120 -72 -83 -119 -156 -152 -237 -31 -77 -36 -58 -42
155 -8 260 19 419 109 644 22 56 45 112 50 126 l10 25 10 -25 c5 -14 10 -43
11 -65z m252 -365 c27 -50 67 -118 90 -150 42 -56 139 -143 183 -163 23 -11
27 -23 13 -45 -7 -11 -17 -8 -52 13 -151 94 -274 286 -320 500 -30 143 -22
179 11 49 18 -72 45 -144 75 -204z m4145 108 c-30 -142 -80 -243 -168 -338
-67 -73 -161 -138 -182 -125 -20 12 -9 31 37 60 130 82 236 230 295 410 18 56
35 101 37 99 2 -1 -7 -49 -19 -106z m-2515 80 c14 -6 25 -15 25 -20 0 -13 57
-96 94 -138 l31 -35 -33 30 c-19 17 -47 48 -62 71 -16 22 -35 41 -42 42 -7 0
-33 6 -58 12 -60 15 -147 4 -241 -30 -142 -52 -254 -130 -379 -264 -146 -157
-341 -269 -436 -252 -19 4 -34 10 -34 14 0 4 24 16 53 26 113 39 231 123 403
286 192 183 372 267 576 269 42 1 89 -4 103 -11z m1064 -4 c79 -19 191 -69
258 -115 26 -18 92 -71 147 -118 235 -205 275 -235 394 -295 103 -52 72 -78
-44 -38 -89 31 -161 83 -307 220 -213 200 -309 262 -465 303 -74 20 -176 21
-249 2 -37 -9 -28 26 10 42 44 19 176 19 256 -1z m-2827 -520 c-5 -287 16
-424 95 -630 l35 -93 -12 -88 -13 -88 -24 55 c-44 98 -113 317 -138 434 -48
234 -43 429 16 554 17 34 33 62 37 62 4 0 6 -93 4 -206z m2442 -74 c55 -28
109 -50 118 -50 42 0 12 -20 -51 -34 -192 -44 -478 -46 -650 -6 -51 12 -90 24
-87 27 3 3 42 21 88 39 116 48 181 89 255 164 l65 65 80 -78 c65 -63 100 -87
182 -127z m-920 -124 c84 -64 263 -125 429 -146 119 -15 358 -12 462 5 188 31
345 86 432 151 l31 24 54 -25 c29 -14 68 -28 86 -31 31 -6 32 -8 26 -43 -40
-226 -211 -414 -401 -439 -71 -9 -147 0 -196 23 -20 9 -65 44 -101 76 -129
119 -210 119 -338 1 -74 -67 -107 -86 -187 -103 -98 -21 -236 25 -333 110 -84
75 -171 234 -180 330 -3 33 -3 33 75 61 43 15 81 30 84 34 9 9 9 9 57 -28z
m1699 -82 c13 -5 12 -18 -9 -96 -74 -277 -258 -464 -512 -522 -176 -40 -312
-6 -460 116 l-62 50 -57 -51 c-71 -63 -136 -96 -228 -116 -88 -19 -134 -19
-230 0 -200 38 -401 214 -485 425 -26 63 -50 147 -50 173 0 34 18 16 29 -30 7
-27 34 -93 61 -148 55 -114 151 -227 245 -289 123 -82 284 -114 418 -82 84 20
113 34 204 102 40 30 82 54 95 54 12 0 36 -13 53 -29 49 -47 131 -98 187 -118
79 -27 231 -25 325 5 89 28 206 105 272 179 71 79 140 217 171 341 12 45 11
45 33 36z m-2938 -337 c12 -71 90 -297 137 -397 47 -100 94 -180 175 -292 l48
-68 7 99 c7 111 29 210 64 289 13 28 24 52 26 52 2 0 1 -84 0 -187 -3 -157 -1
-204 16 -283 23 -112 59 -206 118 -312 24 -43 44 -85 44 -93 0 -27 -82 48
-167 153 -290 355 -456 685 -492 972 -10 76 -6 124 9 115 5 -3 11 -24 15 -48z"/>
<path d="M4630 9045 c-108 -15 -342 -66 -442 -96 -58 -18 -68 -24 -68 -44 0
-45 23 -50 112 -22 88 28 485 127 628 157 l85 18 -110 0 c-60 0 -153 -6 -205
-13z"/>
<path d="M5295 9045 c127 -31 377 -97 537 -142 91 -25 173 -43 182 -40 23 9
31 36 15 52 -15 14 -132 51 -266 84 -118 29 -270 49 -408 55 l-120 5 60 -14z"/>
<path d="M5062 8978 c-6 -7 -48 -78 -94 -158 -103 -177 -290 -495 -408 -690
-102 -171 -123 -210 -112 -210 4 0 12 4 18 9 19 19 604 299 604 290 0 -6 -98
-57 -217 -115 -326 -156 -447 -218 -446 -229 1 -5 63 -47 140 -93 76 -46 224
-138 330 -204 l192 -120 103 65 c57 35 210 128 341 206 130 79 237 144 237
146 0 3 -134 228 -298 502 -164 274 -313 524 -331 556 -34 59 -42 65 -59 45z"/>
<path d="M3960 8878 c-347 -133 -505 -218 -685 -369 -277 -233 -368 -471 -440
-1148 -19 -186 -19 -245 1 -265 40 -40 84 9 84 93 0 60 20 245 45 426 24 170
64 350 96 440 74 205 237 391 464 532 134 82 405 211 481 227 38 9 67 38 62
63 -5 26 -43 26 -108 1z"/>
<path d="M6091 8872 c-16 -29 6 -50 72 -71 133 -41 387 -168 523 -262 211
-146 359 -338 418 -541 30 -106 70 -308 87 -441 10 -85 15 -100 35 -114 22
-14 26 -14 49 1 31 20 32 41 6 207 -57 365 -114 521 -249 690 -118 147 -257
254 -484 373 -126 66 -393 176 -428 176 -10 0 -24 -8 -29 -18z"/>
<path d="M4407 7757 c50 -78 316 -464 398 -577 34 -47 108 -151 164 -232 56
-82 106 -148 111 -148 5 0 69 89 142 198 74 108 190 276 259 372 136 189 269
386 269 396 0 3 -15 -3 -32 -14 -362 -220 -397 -241 -538 -328 -47 -29 -92
-56 -101 -59 -14 -5 -230 120 -354 205 -76 52 -325 199 -318 187z"/>
<path d="M7234 7383 c-15 -15 -16 -31 -10 -132 7 -135 18 -165 63 -169 42 -4
46 12 37 154 -5 91 -11 120 -26 139 -23 29 -40 31 -64 8z"/>
<path d="M3880 5139 c-106 -16 -213 -98 -263 -199 -49 -100 -52 -242 -7 -330
32 -63 116 -147 178 -177 50 -24 69 -28 147 -28 78 0 98 4 152 29 73 34 153
113 186 183 18 40 22 66 22 153 0 125 -17 171 -90 249 -91 97 -204 139 -325
120z m54 -140 c85 -74 37 -209 -74 -209 -111 0 -159 135 -74 209 26 23 44 31
74 31 30 0 48 -8 74 -31z"/>
<path d="M6089 5116 c-101 -41 -163 -99 -208 -196 -23 -48 -26 -68 -26 -155 0
-91 3 -105 30 -158 17 -35 53 -81 87 -113 176 -162 462 -106 569 112 28 56 31
73 32 151 0 175 -88 310 -241 365 -69 25 -174 23 -243 -6z m115 -107 c99 -78
55 -219 -69 -219 -89 0 -143 97 -100 180 30 58 118 79 169 39z"/>
</g>
</svg>
